HIERARCHY
ROOT Hips
{
  OFFSET 8.74516 31.8794 24.6222
  CHANNELS 6 Xposition Yposition Zposition Zrotation Xrotation Yrotation
  JOINT LeftHip
  {
    OFFSET 3.43 0 0
    CHANNELS 3 Zrotation Xrotation Yrotation
    JOINT LeftKnee
    {
      OFFSET 0 -18.47 0
      CHANNELS 3 Zrotation Xrotation Yrotation
      JOINT LeftAnkle
      {
        OFFSET 0 -17.95 0
        CHANNELS 3 Zrotation Xrotation Yrotation
        End Site
        {
          OFFSET 0 -3.12 0
        }
      }
    }
  }
  JOINT RightHip
  {
    OFFSET -3.43 0 0
    CHANNELS 3 Zrotation Xrotation Yrotation
    JOINT RightKnee
    {
      OFFSET 0 -18.47 0
      CHANNELS 3 Zrotation Xrotation Yrotation
      JOINT RightAnkle
      {
        OFFSET 0 -17.95 0
        CHANNELS 3 Zrotation Xrotation Yrotation
        End Site
        {
          OFFSET 0 -3.12 0
        }
      }
    }
  }
  JOINT Chest
  {
    OFFSET 0 4.57 0
    CHANNELS 3 Zrotation Xrotation Yrotation
    JOINT CS_BVH
    {
      OFFSET 0 6.57 0
      CHANNELS 3 Zrotation Xrotation Yrotation
      JOINT LeftCollar
      {
        OFFSET 1.06 4.19 1.76
        CHANNELS 3 Zrotation Xrotation Yrotation
        JOINT LeftShoulder
        {
          OFFSET 5.81 0 0
          CHANNELS 3 Zrotation Xrotation Yrotation
          JOINT LeftElbow
          {
            OFFSET 0 -12.08 0
            CHANNELS 3 Zrotation Xrotation Yrotation
            JOINT LeftWrist
            {
              OFFSET 0 -9.82 0
              CHANNELS 3 Zrotation Xrotation Yrotation
              End Site
              {
                OFFSET 0 -7.37 0
              }
            }
          }
        }
      }
      JOINT RightCollar
      {
        OFFSET -1.06 4.19 1.76
        CHANNELS 3 Zrotation Xrotation Yrotation
        JOINT RightShoulder
        {
          OFFSET -6.06 0 0
          CHANNELS 3 Zrotation Xrotation Yrotation
          JOINT RightElbow
          {
            OFFSET 0 -11.08 0
            CHANNELS 3 Zrotation Xrotation Yrotation
            JOINT RightWrist
            {
              OFFSET 0 -9.82 0
              CHANNELS 3 Zrotation Xrotation Yrotation
              End Site
              {
                OFFSET 0 -7.14001 0
              }
            }
          }
        }
      }
      JOINT Neck
      {
        OFFSET 0 4.05 0
        CHANNELS 3 Zrotation Xrotation Yrotation
        JOINT Head
        {
          OFFSET 0 5.19 0
          CHANNELS 3 Zrotation Xrotation Yrotation
          End Site
          {
            OFFSET 0 4.14001 0
          }
        }
      }
    }
  }
}
MOTION
Frames:	13
Frame Time:	0.0333333
3.70831 36.7446 -43.7533 0.676643 0.324768 0.0103359 5.0058 -13.6878 -0.237543 0.0923416 27.12 -0.417113 -5.8972 -13.75 -0.770234 -6.42245 -15.8104 0.174126 -0.12334 31.4408 0.642332 5.96433 -15.9509 0.841491 -0.955844 0.822363 0.0256088 -0.254183 1.04756 0.0444756 10 -6.2816e-014 1.17283e-014 80 -1.41261e-014 4.66905e-012 5.59611e-011 -6.92466e-013 2.00972e-010 0.00585532 -7.81594e-012 1.09647e-009 -10 -6.16232e-014 -9.34288e-015 -80 -8.89934e-014 -4.54342e-012 7.24696e-011 -1.60553e-012 -1.96525e-010 2.30105e-010 -2.32254e-011 -1.07254e-009 -3.98334e-014 -4.73108e-014 1.13059e-015 -1.25288e-013 -2.46095e-013 4.34841e-015 
0.582089 35.4898 -46.187 1.15927 -6.61518 -88.4105 10.6491 -18.9318 -15.026 0.0404935 47.6399 -0.777692 -3.19423 -29.0858 7.40599 2.43621 -28.3739 0.724449 0.0646238 68.1687 0.823007 -2.04235 -41.503 -14.5435 -11.8937 12.3707 2.04187 4.42762 -13.6182 0.818412 10 -6.2816e-014 1.17283e-014 -2.45332 -1.81019 -11.5584 10.6372 -17.3027 2.96776 0.00233179 0.122871 1.64261 -10 -6.16232e-014 -9.34288e-015 1.9087 1.17568 35.4473 -13.9276 -21.7047 -4.91213 0.0982365 1.18648 -11.9051 -6.33643 -10.8922 -5.79905 10.8975 28.893 -13.4488 
0.563443 35.4968 -46.0871 0.935511 -6.72012 -88.8089 10.3882 -18.4793 -15.1647 0.043866 47.7007 -0.782301 -3.22933 -29.368 7.19912 2.1438 -28.192 0.735574 0.0674415 68.2365 0.846356 -1.93064 -41.2945 -14.4075 -12.1597 12.4586 1.64065 4.97947 -13.5482 0.753674 10 -6.2816e-014 1.17283e-014 -2.32578 -1.38228 -14.5439 11.002 -17.8379 3.11983 -0.0241874 0.358096 4.79567 -10 -6.16232e-014 -9.34288e-015 1.52123 1.12551 36.8221 -14.1211 -21.9612 -5.01087 0.109866 1.25026 -12.5539 -5.794 -11.0454 -5.42067 9.9578 29.3922 -12.5822 
0.56952 35.4586 -45.9791 0.988621 -6.59503 -88.9811 10.7887 -18.8062 -13.8763 0.0373588 48.0985 -0.796451 -3.34112 -29.1998 6.91391 2.12473 -28.3436 0.900565 0.056442 68.3349 0.863667 -1.8116 -41.3677 -14.149 -11.8158 12.3538 1.85718 4.8131 -13.4523 0.801845 10 -6.2816e-014 1.17283e-014 -2.00916 -1.50949 -14.9636 10.9877 -17.8169 3.11387 -0.0232202 0.352308 4.71788 -10 -6.16232e-014 -9.34288e-015 1.36678 1.09019 36.5745 -14.1997 -22.0649 -5.05125 0.115215 1.2767 -12.8232 -5.75184 -10.932 -5.44519 9.95995 29.0466 -12.6072 
0.587287 35.444 -45.8848 1.00018 -6.76068 -89.2206 10.7812 -19.0696 -12.7306 0.0385589 48.4836 -0.81689 -3.29374 -28.8357 7.26857 1.80211 -28.5831 0.855455 0.061978 68.6007 0.875717 -2.001 -41.001 -14.6841 -12.1661 12.3343 1.81282 4.81348 -13.4548 0.777706 10 -6.2816e-014 1.17283e-014 -1.74847 -1.52559 -15.9158 11.0455 -17.9013 3.13825 -0.0415889 0.449489 6.02541 -10 -6.16232e-014 -9.34288e-015 1.68581 0.987007 35.9612 -14.0562 -21.8753 -4.97767 0.100238 1.20096 -12.0523 -5.03205 -10.5027 -5.48886 9.24143 28.3446 -12.6212 
0.639687 35.4194 -45.7053 1.06387 -6.82415 -89.3616 10.5865 -19.402 -12.4603 0.0416593 48.8205 -0.831618 -3.37671 -28.8655 7.00034 1.23487 -28.8996 0.582256 0.0799212 68.7942 0.883346 -1.72894 -40.7927 -14.233 -11.896 12.3449 1.59833 4.80705 -13.4546 0.721659 10 -6.2816e-014 1.17283e-014 -2.36768 -1.59157 -12.4314 10.8104 -17.5573 3.03963 -7.40219e-005 0.159359 2.13085 -10 -6.16232e-014 -9.34288e-015 1.47115 0.730807 35.4734 -13.8581 -21.6123 -4.8769 0.0812211 1.13789 -11.4119 -5.41468 -10.6465 -5.52977 9.4588 28.6336 -12.708 
0.618617 35.4081 -45.6903 0.827295 -6.58739 -89.8679 11.3101 -19.1836 -11.2807 0.0404186 49.0673 -0.847968 -3.78726 -28.9752 5.61045 1.80201 -28.6288 1.28979 0.0681999 68.8533 0.892803 -1.67024 -41.2178 -13.9352 -12.1752 12.519 1.93199 5.12483 -13.478 0.837645 10 -6.2816e-014 1.17283e-014 -2.12138 -1.46515 -13.2278 10.8962 -17.6831 3.07545 0.000104426 0.156945 2.09854 -10 -6.16232e-014 -9.34288e-015 1.55499 0.667037 35.7854 -13.9318 -21.7103 -4.91426 0.0790118 1.1278 -11.3095 -5.52531 -10.909 -5.61372 10.1085 29.1686 -13.0758 
0.666454 35.3862 -45.5318 0.857269 -6.25487 -90.0998 11.661 -19.5351 -10.67 0.039457 49.6106 -0.862154 -3.83222 -29.0014 5.43348 1.72634 -28.8986 1.08606 0.0628157 69.0748 0.921616 -1.44875 -41.132 -13.5453 -11.5133 12.5534 1.84149 4.81551 -13.645 0.795477 10 -6.2816e-014 1.17283e-014 -1.63315 -1.35899 -15.0171 10.9896 -17.8199 3.11472 -0.0244016 0.359365 4.81272 -10 -6.16232e-014 -9.34288e-015 1.73564 0.59672 35.2979 -13.7846 -21.5143 -4.83966 0.0759187 1.06453 -10.6686 -5.05687 -10.4781 -5.56042 9.55047 28.6548 -12.9092 
0.704886 35.3669 -45.3601 0.873 -6.50912 -90.2339 11.3353 -19.7152 -10.4429 0.0512454 49.9562 -0.877004 -4.34117 -30.1887 3.56329 1.02275 -29.1786 0.841936 0.0709469 69.3693 0.943643 -1.16748 -41.0355 -13.0122 -11.7566 12.5921 1.52176 5.19215 -13.6101 0.737438 10 -6.2816e-014 1.17283e-014 -1.91727 -1.18199 -15.7757 11.1177 -18.0067 3.1688 -0.029495 0.40347 5.4058 -10 -6.16232e-014 -9.34288e-015 1.2132 0.382343 36.0099 -13.9149 -21.6879 -4.90569 0.0869476 1.12878 -11.3195 -5.95389 -10.6511 -5.59938 10.605 28.8636 -13.1037 
0.71866 35.3254 -45.2309 0.720348 -6.45327 -90.5709 11.6256 -19.812 -9.20971 0.0465381 50.3859 -0.899045 -4.28258 -29.4634 3.92925 0.857769 -29.2147 0.822354 0.0739306 69.6325 0.959352 -1.28567 -40.6633 -13.4079 -11.8064 12.7709 1.70863 5.3461 -13.6732 0.802131 10 -6.2816e-014 1.17283e-014 -2.07459 -1.27482 -15.497 10.9867 -17.8155 3.11345 -0.0246799 0.325669 4.36007 -10 -6.16232e-014 -9.34288e-015 1.04681 0.281713 35.9284 -13.9022 -21.6711 -4.89926 0.0855755 1.12416 -11.2727 -5.88402 -10.8103 -5.51592 10.42 29.0333 -12.8918 
0.75882 35.2882 -45.061 0.802838 -6.2091 -90.7681 12.0403 -20.3843 -7.92995 0.0472114 51.0221 -0.924933 -4.16486 -29.113 4.38669 0.685666 -29.52 0.558175 0.0740511 69.8118 0.9696 -1.42 -40.3803 -13.816 -11.3749 12.7838 1.50182 5.22968 -13.7318 0.740569 10 -6.2816e-014 1.17283e-014 -2.01559 -1.18937 -14.7356 10.9896 -17.8198 3.11471 -0.0148993 0.263246 3.52248 -10 -6.16232e-014 -9.34288e-015 1.0013 0.111267 35.9145 -13.8448 -21.5946 -4.87007 0.0766801 1.08785 -10.9047 -5.72931 -10.9341 -5.5568 10.3368 29.1359 -12.981 
0.78636 35.2725 -44.88 0.761827 -6.24208 -91.057 11.8527 -20.5722 -7.50897 0.0518 51.5332 -0.94425 -4.06834 -29.0873 4.72231 0.296831 -29.6833 0.456402 0.06827 69.9995 0.996167 -1.34091 -40.2459 -13.7161 -11.2827 12.8963 1.5931 5.14951 -13.7531 0.75428 10 -6.2816e-014 1.17283e-014 -1.96004 -1.27865 -15.4938 10.9899 -17.8201 3.11473 -0.024595 0.361117 4.83626 -10 -6.16232e-014 -9.34288e-015 0.888626 -0.141218 35.662 -13.7117 -21.4169 -4.80279 0.0787888 1.08168 -10.8422 -5.22683 -10.5372 -5.61004 9.62991 28.1303 -12.9129 
0.777183 35.2734 -44.7079 0.468929 -6.15342 -91.5453 12.0414 -20.3077 -6.71533 0.062587 51.7748 -0.956395 -4.24109 -29.2706 4.13738 -0.104126 -29.5066 0.256065 0.0822562 70.0671 1.01601 -0.861728 -40.0372 -12.8337 -11.2743 13.3393 1.93316 5.15373 -13.9097 0.842683 10 -6.2816e-014 1.17283e-014 -2.15374 -1.45753 -15.2583 10.8141 -17.5628 3.04119 -0.014924 0.249306 3.3356 -10 -6.16232e-014 -9.34288e-015 0.762595 -0.256785 35.4746 -13.7552 -21.4751 -4.82476 0.0785465 1.08024 -10.8277 -5.4775 -10.8832 -5.67259 10.3261 28.6567 -13.2016 
